Coordinates
version=1
nRows=8
nColumns=34
inDegrees=yes

Units are S.I. units (second, meters, Newtons, ...)
If the header above contains a line with 'inDegrees', this indicates whether rotational values are in degrees (yes) or radians (no).

endheader
time	pelvis_tilt	pelvis_list	pelvis_rotation	pelvis_tx	pelvis_ty	pelvis_tz	hip_flexion_r	hip_adduction_r	hip_rotation_r	knee_angle_r	ankle_angle_r	subtalar_angle_r	mtp_angle_r	hip_flexion_l	hip_adduction_l	hip_rotation_l	knee_angle_l	ankle_angle_l	subtalar_angle_l	mtp_angle_l	lumbar_extension	lumbar_bending	lumbar_rotation	arm_flex_r	arm_add_r	arm_rot_r	elbow_flex_r	pro_sup_r	arm_flex_l	arm_add_l	arm_rot_l	elbow_flex_l	pro_sup_l
      2.66666670	    -23.93839118	      1.23149930	      5.55065867	      0.44545893	      0.48928509	     -0.09686040	    119.99999986	    -22.75673511	      8.45079620	    128.99906764	     27.52149358	    -35.00000000	      0.00000000	    119.99999986	     -8.00263126	      4.11114714	    127.20202965	     28.12077537	    -14.84526050	      0.00000000	    -41.43712814	      5.53674932	    -12.78989132	    134.11950246	      1.12299295	     27.22580009	     44.89993112	     77.27506499	    -38.56923143	   -175.34060685	   -131.10265768	     36.08730152	     33.47980596
      2.68333330	    -22.25360517	      1.15669199	      5.51195658	      0.43765605	      0.47785933	     -0.10107786	    119.99999986	    -23.02947770	      9.32552389	    130.02122489	     27.34121471	    -35.00000000	      0.00000000	    119.99999986	     -7.26575132	      4.56222605	    128.30997173	     27.79101112	    -15.18441435	      0.00000000	    -43.64207531	      6.13920917	    -13.19099539	    137.20474504	      2.05358581	     28.56679543	     42.35825005	     76.52191187	    -35.53137660	   -174.65444427	   -126.83105587	     34.91259201	     32.17886766
      2.70000000	    -21.38180073	      1.08839754	      5.61744921	      0.44866467	      0.48223739	     -0.10584220	    119.99999986	    -23.69476566	     10.22575231	    130.65448899	     27.00203151	    -35.00000000	      0.00000000	    119.99999986	     -6.61346781	      4.65476866	    129.28074121	     27.57912064	    -15.50496272	      0.00000000	    -44.51108378	      6.61148387	    -13.50963025	    137.92432663	      2.56753047	     28.44195947	     41.71292688	     76.33800167	    -34.98655080	   -174.77060448	   -126.97967999	     34.09560273	     31.68985263
      2.71666670	    -21.23932906	      0.88505971	      5.56571505	      0.44922039	      0.48654647	     -0.10618797	    119.99999986	    -24.16945975	     10.41320397	    130.60293374	     26.12694002	    -35.00000000	      0.00000000	    119.99999986	     -6.19465270	      4.70519516	    129.43390031	     27.43726961	    -15.47459036	      0.00000000	    -44.54000885	      6.85875613	    -13.50087574	    137.70270534	      2.69532309	     28.48851738	     41.70558363	     76.31125770	    -35.13641126	   -174.89758768	   -127.02958766	     33.89544427	     31.56742307
      2.73333330	    -21.21029945	      0.48104861	      5.59765769	      0.44952943	      0.48658691	     -0.10663135	    119.99999986	    -24.69337462	     10.21122917	    130.52203580	     25.69592522	    -35.00000000	      0.00000000	    119.99999986	     -5.80537693	      4.95462199	    129.55817557	     27.14338085	    -15.66753888	      0.00000000	    -44.01628155	      7.32794014	    -13.87304753	    136.22122834	      2.68344894	     28.28762165	     42.78113168	     76.22275192	    -36.12430855	   -174.41146642	   -127.18776626	     34.63946778	     31.20501262
      2.75000000	    -21.83503650	      0.28826459	      5.77972567	      0.45851243	      0.49608669	     -0.09473437	    119.99999986	    -24.90365523	      9.47514678	    130.28061098	     25.56305485	    -35.00000000	      0.00000000	    119.99999986	     -6.18473033	      5.31608312	    129.31328508	     26.17631160	    -15.56119596	      0.00000000	    -42.91298059	      7.01748852	    -14.01768078	    133.82468727	      2.28280145	     27.21620846	     45.28513924	     76.17637687	    -38.24582056	   -173.94778720	   -128.08258009	     37.09986998	     30.85872972
      2.76666670	    -23.16754507	      0.49986718	      5.78983884	      0.47405799	      0.51007982	     -0.09511145	    119.99999986	    -24.92877224	      8.85964470	    129.69631544	     25.45394834	    -35.00000000	      0.00000000	    119.99999986	     -7.13783116	      4.80300940	    128.59992873	     25.43527472	    -15.80853855	      0.00000000	    -40.74070177	      6.22068818	    -14.09907519	    128.97119144	      1.34269082	     24.44932411	     49.76918696	     76.76480043	    -42.12344627	   -173.99316987	   -131.62283729	     39.66193477	     30.74773725
      2.78333330	    -24.46089321	      0.61683320	      5.78067688	      0.46971468	      0.51515127	     -0.09401811	    119.99999986	    -24.97393990	      8.04926228	    128.74911343	     25.10812463	    -35.00000000	      0.00000000	    119.99999986	     -7.84324973	      4.09618427	    127.41003416	     24.56558531	    -16.81934441	      0.00000000	    -38.90855594	      5.62816965	    -14.38737980	    125.59278799	      0.16555662	     23.93889948	     53.30226949	     77.33780484	    -44.14549159	   -173.74685930	   -132.70493586	     41.58164889	     31.09775062
